<?xml version="1.0" encoding="utf-8"?>
<!-- Svg Vector Icons : http://www.onlinewebfonts.com/icon -->
<!DOCTYPE svg PUBLIC "-//W3C//DTD SVG 1.1//EN" "http://www.w3.org/Graphics/SVG/1.1/DTD/svg11.dtd">
<svg version="1.1" xmlns="http://www.w3.org/2000/svg" xmlns:xlink="http://www.w3.org/1999/xlink" x="0px" y="0px" viewBox="0 0 1000 1000" enable-background="new 0 0 1000 1000" xml:space="preserve">
<metadata> Svg Vector Icons : http://www.onlinewebfonts.com/icon </metadata>
<g><g transform="matrix(1 0 0 -1 0 1920)"><path d="M924.3,1664.1l-118.7,118.7l59.1,59.5c4.4,4.1,9.4,6.2,15.2,6.2s10.7-2.1,14.8-6.2l89.1-89.1c4.1-4.1,6.2-9.1,6.2-15c0-5.9-2.1-10.9-6.2-15L924.3,1664.1z M515,1254.8l-118.7,118.7L769.9,1747l118.7-118.7L515,1254.8z M174.2,991.6c-29.6,0-57,7.3-82.3,22c-25.3,14.6-45.3,34.6-59.9,59.7c-14.6,25.2-22,52.7-22,82.5v410.6c0,29.6,7.3,57,22,82.3c14.6,25.3,34.6,45.3,59.9,59.9c25.3,14.6,52.8,22,82.3,22h410.6c14.5,0,30.2-2.6,47.2-7.8l-74.3-74.3H133.2c-7.4,0-14.2-1.8-20.5-5.5c-6.3-3.7-11.3-8.7-15-15c-3.7-6.3-5.5-13.1-5.5-20.5v-492.7c0-11.2,4-20.9,12.1-28.9c8.1-8.1,17.7-12.1,28.9-12.1h492.7c11.2,0,20.9,4,28.9,12.1c8.1,8.1,12.1,17.7,12.1,28.9v178.2L749,1375v-219.2c0-29.8-7.3-57.3-22-82.5c-14.6-25.2-34.6-45.1-59.9-59.7c-25.3-14.6-52.8-22-82.3-22H174.2z M305.6,1152.1c-2.5-1.1-4.7-1.6-6.6-1.6c-4.4,0-6.6,2.3-6.6,7c0,1.9,0.4,4.1,1.2,6.6l66.9,171.2L475.2,1219L305.6,1152.1z"/></g></g>
</svg>