<?xml version="1.0" encoding="utf-8"?>
<!-- Generator: Adobe Illustrator 24.1.1, SVG Export Plug-In . SVG Version: 6.00 Build 0)  -->
<svg version="1.1" id="Layer_1" xmlns="http://www.w3.org/2000/svg" xmlns:xlink="http://www.w3.org/1999/xlink" x="0px" y="0px"
	 viewBox="0 0 512 512" style="enable-background:new 0 0 512 512;" xml:space="preserve">
<g>
	<path d="M512,23.27v116.36c0,12.8-10.47,23.27-23.27,23.27c-12.8,0-23.27-10.47-23.27-23.27V79.71L330.47,214.69
		c-4.65,4.65-10.47,6.98-16.29,6.98s-11.64-2.32-16.29-6.98c-9.31-9.31-9.31-23.86,0-33.16l134.4-134.98h-59.93
		c-12.8,0-23.27-10.47-23.27-23.27c0-12.8,10.47-23.27,23.27-23.27h116.36c6.4,0,12.22,2.33,16.29,6.98
		C509.67,11.05,512,16.87,512,23.27z M488.73,349.09c-12.8,0-23.27,10.47-23.27,23.27v59.93L332.8,300.8
		c-9.31-9.31-24.44-9.31-33.75,0c-9.31,9.31-9.31,23.85-0.58,33.16l131.49,131.49h-59.93c-12.8,0-23.27,10.47-23.27,23.27
		c0,12.8,10.47,23.27,23.27,23.27H486.4c6.4,0,13.38-2.33,17.45-6.98c4.65-4.65,8.15-10.47,8.15-16.29V372.36
		C512,359.56,501.53,349.09,488.73,349.09z M179.2,299.64L46.55,432.29v-59.93c0-12.8-10.47-23.27-23.27-23.27S0,359.56,0,372.36
		v116.36c0,6.4,2.32,12.22,6.98,16.29c4.65,4.65,10.47,6.98,16.87,6.98h116.36c12.8,0,23.27-10.47,23.27-23.27
		c0-12.8-10.47-23.27-23.27-23.27H79.71L212.36,332.8c9.31-9.31,8.73-23.86,0-33.16C203.64,290.33,188.51,290.33,179.2,299.64z
		 M79.71,48.87h59.93c12.8,0,23.27-10.47,23.27-23.27S152.44,2.33,139.64,2.33H23.27c-6.4,0-12.22,2.33-16.29,6.98
		C2.32,13.38,0,19.2,0,25.6v116.36c0,12.8,10.47,23.27,23.27,23.27s23.27-10.47,23.27-23.27V81.45l134.4,134.4
		c4.65,4.66,10.47,6.98,16.29,6.98s11.64-2.32,16.3-6.98c9.31-9.31,9.31-23.85,0-33.16L79.71,48.87z"/>
</g>
</svg>
