<?xml version="1.0" standalone="no"?>
<!DOCTYPE svg PUBLIC "-//W3C//DTD SVG 20010904//EN"
 "http://www.w3.org/TR/2001/REC-SVG-20010904/DTD/svg10.dtd">
<svg version="1.0" xmlns="http://www.w3.org/2000/svg"
 width="1300.000000pt" height="1300.000000pt" viewBox="0 0 1300.000000 1300.000000"
 preserveAspectRatio="xMidYMid meet">

<g transform="translate(0.000000,1300.000000) scale(0.100000,-0.100000)"
fill="#000000" stroke="none">
<path d="M6115 10929 c-439 -39 -860 -141 -1285 -309 -227 -90 -550 -261 -775
-410 -352 -232 -721 -563 -976 -875 -154 -189 -366 -491 -421 -600 -8 -16 -37
-68 -63 -115 -242 -427 -427 -992 -499 -1515 -53 -382 -49 -890 10 -1285 8
-57 18 -109 22 -114 3 -6 8 -29 10 -51 5 -58 67 -311 108 -445 262 -844 737
-1558 1414 -2126 262 -220 524 -391 855 -559 186 -94 236 -116 440 -192 401
-149 768 -229 1198 -264 191 -15 696 -6 867 15 871 109 1654 447 2320 1000
128 106 163 138 315 291 629 629 1060 1452 1219 2330 45 250 58 395 63 708 6
315 -4 498 -37 717 -35 227 -55 327 -104 511 -141 534 -402 1071 -736 1519
-316 422 -752 825 -1195 1102 -598 374 -1255 598 -1944 663 -177 16 -644 19
-806 4z m845 -1018 c445 -66 821 -189 1175 -384 1125 -617 1809 -1769 1805
-3037 0 -102 -3 -207 -7 -234 -4 -40 -3 -47 8 -40 11 6 12 5 2 -7 -6 -8 -19
-68 -28 -134 -66 -476 -191 -858 -412 -1254 -385 -688 -1010 -1235 -1738
-1521 -591 -233 -1211 -296 -1855 -190 -755 124 -1484 535 -1998 1125 -396
454 -678 1024 -786 1585 -55 284 -64 392 -62 700 3 300 14 424 62 660 221
1091 956 2007 1979 2464 362 162 693 246 1140 290 22 2 162 2 310 1 206 -3
302 -8 405 -24z"/>
<path d="M4700 8697 c-121 -23 -248 -107 -321 -213 -66 -97 -99 -240 -79 -352
13 -79 52 -171 94 -227 17 -22 338 -348 714 -724 l683 -683 -682 -682 c-375
-374 -698 -703 -719 -731 -20 -27 -46 -73 -58 -101 -23 -55 -45 -171 -35 -187
3 -5 5 -29 5 -54 -2 -100 64 -231 162 -321 103 -93 204 -127 359 -120 116 6
201 35 272 93 22 18 347 339 723 715 l682 682 662 -665 c365 -365 688 -685
718 -711 106 -91 234 -131 373 -116 92 9 148 28 222 75 164 103 261 315 225
492 -16 82 -57 181 -93 228 -17 22 -336 345 -709 718 -373 372 -678 682 -678
688 0 6 309 320 686 697 377 377 698 703 713 726 63 95 76 140 76 281 0 129 0
130 -37 207 -78 163 -222 268 -393 287 -125 14 -262 -18 -342 -80 -21 -16
-349 -340 -729 -720 l-692 -690 -688 689 c-379 378 -711 703 -738 722 -99 67
-257 99 -376 77z"/>
</g>
</svg>
